<mxfile host="app.diagrams.net" modified="2023-11-20T11:14:05.497Z" agent="Mozilla/5.0 (X11; Linux x86_64) AppleWebKit/537.36 (KHTML, like Gecko) Chrome/119.0.0.0 Safari/537.36" etag="_nqXvALKKD_7tyF5iTaB" version="22.1.3" type="github">
  <diagram name="Page-1" id="7o3aV8U6iJbPEaSLS7XN">
    <mxGraphModel dx="1687" dy="893" grid="1" gridSize="10" guides="1" tooltips="1" connect="1" arrows="1" fold="1" page="1" pageScale="1" pageWidth="827" pageHeight="1169" math="0" shadow="0">
      <root>
        <mxCell id="0" />
        <mxCell id="1" parent="0" />
        <mxCell id="pFNb65BiCYkRBpzbbmmn-1" style="rounded=0;orthogonalLoop=1;jettySize=auto;html=1;exitX=0;exitY=0.5;exitDx=0;exitDy=0;entryX=1;entryY=0;entryDx=0;entryDy=0;endArrow=none;endFill=0;" edge="1" parent="1" source="pFNb65BiCYkRBpzbbmmn-3" target="pFNb65BiCYkRBpzbbmmn-6">
          <mxGeometry relative="1" as="geometry" />
        </mxCell>
        <mxCell id="pFNb65BiCYkRBpzbbmmn-2" style="rounded=0;orthogonalLoop=1;jettySize=auto;html=1;exitX=1;exitY=0.5;exitDx=0;exitDy=0;entryX=0;entryY=0;entryDx=0;entryDy=0;endArrow=none;endFill=0;" edge="1" parent="1" source="pFNb65BiCYkRBpzbbmmn-3" target="pFNb65BiCYkRBpzbbmmn-11">
          <mxGeometry relative="1" as="geometry" />
        </mxCell>
        <mxCell id="pFNb65BiCYkRBpzbbmmn-3" value="2" style="ellipse;whiteSpace=wrap;html=1;aspect=fixed;" vertex="1" parent="1">
          <mxGeometry x="560" y="60" width="40" height="40" as="geometry" />
        </mxCell>
        <mxCell id="pFNb65BiCYkRBpzbbmmn-6" value="4" style="ellipse;whiteSpace=wrap;html=1;aspect=fixed;" vertex="1" parent="1">
          <mxGeometry x="500" y="120" width="40" height="40" as="geometry" />
        </mxCell>
        <mxCell id="pFNb65BiCYkRBpzbbmmn-11" value="5" style="ellipse;whiteSpace=wrap;html=1;aspect=fixed;" vertex="1" parent="1">
          <mxGeometry x="620" y="120" width="40" height="40" as="geometry" />
        </mxCell>
        <mxCell id="pFNb65BiCYkRBpzbbmmn-14" style="rounded=0;orthogonalLoop=1;jettySize=auto;html=1;exitX=0;exitY=0.5;exitDx=0;exitDy=0;entryX=1;entryY=0;entryDx=0;entryDy=0;endArrow=none;endFill=0;" edge="1" parent="1" source="pFNb65BiCYkRBpzbbmmn-16" target="pFNb65BiCYkRBpzbbmmn-3">
          <mxGeometry relative="1" as="geometry" />
        </mxCell>
        <mxCell id="pFNb65BiCYkRBpzbbmmn-15" style="rounded=0;orthogonalLoop=1;jettySize=auto;html=1;exitX=1;exitY=0.5;exitDx=0;exitDy=0;entryX=0;entryY=0;entryDx=0;entryDy=0;endArrow=none;endFill=0;" edge="1" parent="1" source="pFNb65BiCYkRBpzbbmmn-16" target="pFNb65BiCYkRBpzbbmmn-19">
          <mxGeometry relative="1" as="geometry">
            <mxPoint x="845.8578643762689" y="65.85786437626905" as="targetPoint" />
          </mxGeometry>
        </mxCell>
        <mxCell id="pFNb65BiCYkRBpzbbmmn-16" value="1" style="ellipse;whiteSpace=wrap;html=1;aspect=fixed;fillColor=#e1d5e7;strokeColor=#9673a6;" vertex="1" parent="1">
          <mxGeometry x="680" width="40" height="40" as="geometry" />
        </mxCell>
        <mxCell id="pFNb65BiCYkRBpzbbmmn-17" style="rounded=0;orthogonalLoop=1;jettySize=auto;html=1;exitX=0;exitY=0.5;exitDx=0;exitDy=0;entryX=1;entryY=0;entryDx=0;entryDy=0;endArrow=none;endFill=0;" edge="1" parent="1" source="pFNb65BiCYkRBpzbbmmn-19" target="pFNb65BiCYkRBpzbbmmn-22">
          <mxGeometry relative="1" as="geometry" />
        </mxCell>
        <mxCell id="pFNb65BiCYkRBpzbbmmn-18" style="rounded=0;orthogonalLoop=1;jettySize=auto;html=1;exitX=1;exitY=0.5;exitDx=0;exitDy=0;entryX=0;entryY=0;entryDx=0;entryDy=0;endArrow=none;endFill=0;" edge="1" parent="1" source="pFNb65BiCYkRBpzbbmmn-19" target="pFNb65BiCYkRBpzbbmmn-27">
          <mxGeometry relative="1" as="geometry" />
        </mxCell>
        <mxCell id="pFNb65BiCYkRBpzbbmmn-19" value="3" style="ellipse;whiteSpace=wrap;html=1;aspect=fixed;" vertex="1" parent="1">
          <mxGeometry x="800" y="60" width="40" height="40" as="geometry" />
        </mxCell>
        <mxCell id="pFNb65BiCYkRBpzbbmmn-22" value="6" style="ellipse;whiteSpace=wrap;html=1;aspect=fixed;" vertex="1" parent="1">
          <mxGeometry x="740" y="120" width="40" height="40" as="geometry" />
        </mxCell>
        <mxCell id="pFNb65BiCYkRBpzbbmmn-27" value="7" style="ellipse;whiteSpace=wrap;html=1;aspect=fixed;" vertex="1" parent="1">
          <mxGeometry x="860" y="120" width="40" height="40" as="geometry" />
        </mxCell>
        <mxCell id="pFNb65BiCYkRBpzbbmmn-30" style="rounded=0;orthogonalLoop=1;jettySize=auto;html=1;exitX=0;exitY=0.5;exitDx=0;exitDy=0;entryX=1;entryY=0;entryDx=0;entryDy=0;endArrow=none;endFill=0;" edge="1" parent="1" source="pFNb65BiCYkRBpzbbmmn-32" target="pFNb65BiCYkRBpzbbmmn-35">
          <mxGeometry relative="1" as="geometry" />
        </mxCell>
        <mxCell id="pFNb65BiCYkRBpzbbmmn-31" style="rounded=0;orthogonalLoop=1;jettySize=auto;html=1;exitX=1;exitY=0.5;exitDx=0;exitDy=0;entryX=0;entryY=0;entryDx=0;entryDy=0;endArrow=none;endFill=0;" edge="1" parent="1" source="pFNb65BiCYkRBpzbbmmn-32" target="pFNb65BiCYkRBpzbbmmn-40">
          <mxGeometry relative="1" as="geometry" />
        </mxCell>
        <mxCell id="pFNb65BiCYkRBpzbbmmn-32" value="2" style="ellipse;whiteSpace=wrap;html=1;aspect=fixed;fillColor=#e1d5e7;strokeColor=#9673a6;" vertex="1" parent="1">
          <mxGeometry x="560" y="300" width="40" height="40" as="geometry" />
        </mxCell>
        <mxCell id="pFNb65BiCYkRBpzbbmmn-35" value="4" style="ellipse;whiteSpace=wrap;html=1;aspect=fixed;" vertex="1" parent="1">
          <mxGeometry x="500" y="360" width="40" height="40" as="geometry" />
        </mxCell>
        <mxCell id="pFNb65BiCYkRBpzbbmmn-40" value="5" style="ellipse;whiteSpace=wrap;html=1;aspect=fixed;" vertex="1" parent="1">
          <mxGeometry x="620" y="360" width="40" height="40" as="geometry" />
        </mxCell>
        <mxCell id="pFNb65BiCYkRBpzbbmmn-43" style="rounded=0;orthogonalLoop=1;jettySize=auto;html=1;exitX=0;exitY=0.5;exitDx=0;exitDy=0;entryX=1;entryY=0;entryDx=0;entryDy=0;endArrow=none;endFill=0;" edge="1" parent="1" source="pFNb65BiCYkRBpzbbmmn-45" target="pFNb65BiCYkRBpzbbmmn-32">
          <mxGeometry relative="1" as="geometry" />
        </mxCell>
        <mxCell id="pFNb65BiCYkRBpzbbmmn-44" style="rounded=0;orthogonalLoop=1;jettySize=auto;html=1;exitX=1;exitY=0.5;exitDx=0;exitDy=0;entryX=0;entryY=0;entryDx=0;entryDy=0;endArrow=none;endFill=0;" edge="1" parent="1" source="pFNb65BiCYkRBpzbbmmn-45" target="pFNb65BiCYkRBpzbbmmn-48">
          <mxGeometry relative="1" as="geometry">
            <mxPoint x="845.8578643762689" y="305.85786437626905" as="targetPoint" />
          </mxGeometry>
        </mxCell>
        <mxCell id="pFNb65BiCYkRBpzbbmmn-45" value="1" style="ellipse;whiteSpace=wrap;html=1;aspect=fixed;fillColor=#f8cecc;strokeColor=#b85450;" vertex="1" parent="1">
          <mxGeometry x="680" y="240" width="40" height="40" as="geometry" />
        </mxCell>
        <mxCell id="pFNb65BiCYkRBpzbbmmn-46" style="rounded=0;orthogonalLoop=1;jettySize=auto;html=1;exitX=0;exitY=0.5;exitDx=0;exitDy=0;entryX=1;entryY=0;entryDx=0;entryDy=0;endArrow=none;endFill=0;" edge="1" parent="1" source="pFNb65BiCYkRBpzbbmmn-48" target="pFNb65BiCYkRBpzbbmmn-51">
          <mxGeometry relative="1" as="geometry" />
        </mxCell>
        <mxCell id="pFNb65BiCYkRBpzbbmmn-47" style="rounded=0;orthogonalLoop=1;jettySize=auto;html=1;exitX=1;exitY=0.5;exitDx=0;exitDy=0;entryX=0;entryY=0;entryDx=0;entryDy=0;endArrow=none;endFill=0;" edge="1" parent="1" source="pFNb65BiCYkRBpzbbmmn-48" target="pFNb65BiCYkRBpzbbmmn-56">
          <mxGeometry relative="1" as="geometry" />
        </mxCell>
        <mxCell id="pFNb65BiCYkRBpzbbmmn-48" value="3" style="ellipse;whiteSpace=wrap;html=1;aspect=fixed;" vertex="1" parent="1">
          <mxGeometry x="800" y="300" width="40" height="40" as="geometry" />
        </mxCell>
        <mxCell id="pFNb65BiCYkRBpzbbmmn-51" value="6" style="ellipse;whiteSpace=wrap;html=1;aspect=fixed;" vertex="1" parent="1">
          <mxGeometry x="740" y="360" width="40" height="40" as="geometry" />
        </mxCell>
        <mxCell id="pFNb65BiCYkRBpzbbmmn-56" value="7" style="ellipse;whiteSpace=wrap;html=1;aspect=fixed;" vertex="1" parent="1">
          <mxGeometry x="860" y="360" width="40" height="40" as="geometry" />
        </mxCell>
        <mxCell id="pFNb65BiCYkRBpzbbmmn-59" style="rounded=0;orthogonalLoop=1;jettySize=auto;html=1;exitX=0;exitY=0.5;exitDx=0;exitDy=0;entryX=1;entryY=0;entryDx=0;entryDy=0;endArrow=none;endFill=0;" edge="1" parent="1" source="pFNb65BiCYkRBpzbbmmn-61" target="pFNb65BiCYkRBpzbbmmn-64">
          <mxGeometry relative="1" as="geometry" />
        </mxCell>
        <mxCell id="pFNb65BiCYkRBpzbbmmn-60" style="rounded=0;orthogonalLoop=1;jettySize=auto;html=1;exitX=1;exitY=0.5;exitDx=0;exitDy=0;entryX=0;entryY=0;entryDx=0;entryDy=0;endArrow=none;endFill=0;" edge="1" parent="1" source="pFNb65BiCYkRBpzbbmmn-61" target="pFNb65BiCYkRBpzbbmmn-69">
          <mxGeometry relative="1" as="geometry" />
        </mxCell>
        <mxCell id="pFNb65BiCYkRBpzbbmmn-61" value="2" style="ellipse;whiteSpace=wrap;html=1;aspect=fixed;fillColor=#f8cecc;strokeColor=#b85450;" vertex="1" parent="1">
          <mxGeometry x="560" y="540" width="40" height="40" as="geometry" />
        </mxCell>
        <mxCell id="pFNb65BiCYkRBpzbbmmn-64" value="4" style="ellipse;whiteSpace=wrap;html=1;aspect=fixed;fillColor=#e1d5e7;strokeColor=#9673a6;" vertex="1" parent="1">
          <mxGeometry x="500" y="600" width="40" height="40" as="geometry" />
        </mxCell>
        <mxCell id="pFNb65BiCYkRBpzbbmmn-69" value="5" style="ellipse;whiteSpace=wrap;html=1;aspect=fixed;" vertex="1" parent="1">
          <mxGeometry x="620" y="600" width="40" height="40" as="geometry" />
        </mxCell>
        <mxCell id="pFNb65BiCYkRBpzbbmmn-72" style="rounded=0;orthogonalLoop=1;jettySize=auto;html=1;exitX=0;exitY=0.5;exitDx=0;exitDy=0;entryX=1;entryY=0;entryDx=0;entryDy=0;endArrow=none;endFill=0;" edge="1" parent="1" source="pFNb65BiCYkRBpzbbmmn-74" target="pFNb65BiCYkRBpzbbmmn-61">
          <mxGeometry relative="1" as="geometry" />
        </mxCell>
        <mxCell id="pFNb65BiCYkRBpzbbmmn-73" style="rounded=0;orthogonalLoop=1;jettySize=auto;html=1;exitX=1;exitY=0.5;exitDx=0;exitDy=0;entryX=0;entryY=0;entryDx=0;entryDy=0;endArrow=none;endFill=0;" edge="1" parent="1" source="pFNb65BiCYkRBpzbbmmn-74" target="pFNb65BiCYkRBpzbbmmn-77">
          <mxGeometry relative="1" as="geometry">
            <mxPoint x="845.8578643762689" y="545.857864376269" as="targetPoint" />
          </mxGeometry>
        </mxCell>
        <mxCell id="pFNb65BiCYkRBpzbbmmn-74" value="1" style="ellipse;whiteSpace=wrap;html=1;aspect=fixed;fillColor=#f8cecc;strokeColor=#b85450;" vertex="1" parent="1">
          <mxGeometry x="680" y="480" width="40" height="40" as="geometry" />
        </mxCell>
        <mxCell id="pFNb65BiCYkRBpzbbmmn-75" style="rounded=0;orthogonalLoop=1;jettySize=auto;html=1;exitX=0;exitY=0.5;exitDx=0;exitDy=0;entryX=1;entryY=0;entryDx=0;entryDy=0;endArrow=none;endFill=0;" edge="1" parent="1" source="pFNb65BiCYkRBpzbbmmn-77" target="pFNb65BiCYkRBpzbbmmn-80">
          <mxGeometry relative="1" as="geometry" />
        </mxCell>
        <mxCell id="pFNb65BiCYkRBpzbbmmn-76" style="rounded=0;orthogonalLoop=1;jettySize=auto;html=1;exitX=1;exitY=0.5;exitDx=0;exitDy=0;entryX=0;entryY=0;entryDx=0;entryDy=0;endArrow=none;endFill=0;" edge="1" parent="1" source="pFNb65BiCYkRBpzbbmmn-77" target="pFNb65BiCYkRBpzbbmmn-85">
          <mxGeometry relative="1" as="geometry" />
        </mxCell>
        <mxCell id="pFNb65BiCYkRBpzbbmmn-77" value="3" style="ellipse;whiteSpace=wrap;html=1;aspect=fixed;" vertex="1" parent="1">
          <mxGeometry x="800" y="540" width="40" height="40" as="geometry" />
        </mxCell>
        <mxCell id="pFNb65BiCYkRBpzbbmmn-80" value="6" style="ellipse;whiteSpace=wrap;html=1;aspect=fixed;" vertex="1" parent="1">
          <mxGeometry x="740" y="600" width="40" height="40" as="geometry" />
        </mxCell>
        <mxCell id="pFNb65BiCYkRBpzbbmmn-85" value="7" style="ellipse;whiteSpace=wrap;html=1;aspect=fixed;" vertex="1" parent="1">
          <mxGeometry x="860" y="600" width="40" height="40" as="geometry" />
        </mxCell>
        <mxCell id="pFNb65BiCYkRBpzbbmmn-88" style="rounded=0;orthogonalLoop=1;jettySize=auto;html=1;exitX=0;exitY=0.5;exitDx=0;exitDy=0;entryX=1;entryY=0;entryDx=0;entryDy=0;endArrow=none;endFill=0;" edge="1" parent="1" source="pFNb65BiCYkRBpzbbmmn-90" target="pFNb65BiCYkRBpzbbmmn-93">
          <mxGeometry relative="1" as="geometry" />
        </mxCell>
        <mxCell id="pFNb65BiCYkRBpzbbmmn-89" style="rounded=0;orthogonalLoop=1;jettySize=auto;html=1;exitX=1;exitY=0.5;exitDx=0;exitDy=0;entryX=0;entryY=0;entryDx=0;entryDy=0;endArrow=none;endFill=0;" edge="1" parent="1" source="pFNb65BiCYkRBpzbbmmn-90" target="pFNb65BiCYkRBpzbbmmn-98">
          <mxGeometry relative="1" as="geometry" />
        </mxCell>
        <mxCell id="pFNb65BiCYkRBpzbbmmn-90" value="2" style="ellipse;whiteSpace=wrap;html=1;aspect=fixed;fillColor=#f8cecc;strokeColor=#b85450;" vertex="1" parent="1">
          <mxGeometry x="560" y="780" width="40" height="40" as="geometry" />
        </mxCell>
        <mxCell id="pFNb65BiCYkRBpzbbmmn-93" value="4" style="ellipse;whiteSpace=wrap;html=1;aspect=fixed;fillColor=#f8cecc;strokeColor=#b85450;" vertex="1" parent="1">
          <mxGeometry x="500" y="840" width="40" height="40" as="geometry" />
        </mxCell>
        <mxCell id="pFNb65BiCYkRBpzbbmmn-98" value="5" style="ellipse;whiteSpace=wrap;html=1;aspect=fixed;fillColor=#e1d5e7;strokeColor=#9673a6;" vertex="1" parent="1">
          <mxGeometry x="620" y="840" width="40" height="40" as="geometry" />
        </mxCell>
        <mxCell id="pFNb65BiCYkRBpzbbmmn-101" style="rounded=0;orthogonalLoop=1;jettySize=auto;html=1;exitX=0;exitY=0.5;exitDx=0;exitDy=0;entryX=1;entryY=0;entryDx=0;entryDy=0;endArrow=none;endFill=0;" edge="1" parent="1" source="pFNb65BiCYkRBpzbbmmn-103" target="pFNb65BiCYkRBpzbbmmn-90">
          <mxGeometry relative="1" as="geometry" />
        </mxCell>
        <mxCell id="pFNb65BiCYkRBpzbbmmn-102" style="rounded=0;orthogonalLoop=1;jettySize=auto;html=1;exitX=1;exitY=0.5;exitDx=0;exitDy=0;entryX=0;entryY=0;entryDx=0;entryDy=0;endArrow=none;endFill=0;" edge="1" parent="1" source="pFNb65BiCYkRBpzbbmmn-103" target="pFNb65BiCYkRBpzbbmmn-106">
          <mxGeometry relative="1" as="geometry">
            <mxPoint x="845.8578643762689" y="785.857864376269" as="targetPoint" />
          </mxGeometry>
        </mxCell>
        <mxCell id="pFNb65BiCYkRBpzbbmmn-103" value="1" style="ellipse;whiteSpace=wrap;html=1;aspect=fixed;fillColor=#f8cecc;strokeColor=#b85450;" vertex="1" parent="1">
          <mxGeometry x="680" y="720" width="40" height="40" as="geometry" />
        </mxCell>
        <mxCell id="pFNb65BiCYkRBpzbbmmn-104" style="rounded=0;orthogonalLoop=1;jettySize=auto;html=1;exitX=0;exitY=0.5;exitDx=0;exitDy=0;entryX=1;entryY=0;entryDx=0;entryDy=0;endArrow=none;endFill=0;" edge="1" parent="1" source="pFNb65BiCYkRBpzbbmmn-106" target="pFNb65BiCYkRBpzbbmmn-109">
          <mxGeometry relative="1" as="geometry" />
        </mxCell>
        <mxCell id="pFNb65BiCYkRBpzbbmmn-105" style="rounded=0;orthogonalLoop=1;jettySize=auto;html=1;exitX=1;exitY=0.5;exitDx=0;exitDy=0;entryX=0;entryY=0;entryDx=0;entryDy=0;endArrow=none;endFill=0;" edge="1" parent="1" source="pFNb65BiCYkRBpzbbmmn-106" target="pFNb65BiCYkRBpzbbmmn-114">
          <mxGeometry relative="1" as="geometry" />
        </mxCell>
        <mxCell id="pFNb65BiCYkRBpzbbmmn-106" value="3" style="ellipse;whiteSpace=wrap;html=1;aspect=fixed;" vertex="1" parent="1">
          <mxGeometry x="800" y="780" width="40" height="40" as="geometry" />
        </mxCell>
        <mxCell id="pFNb65BiCYkRBpzbbmmn-109" value="6" style="ellipse;whiteSpace=wrap;html=1;aspect=fixed;" vertex="1" parent="1">
          <mxGeometry x="740" y="840" width="40" height="40" as="geometry" />
        </mxCell>
        <mxCell id="pFNb65BiCYkRBpzbbmmn-114" value="7" style="ellipse;whiteSpace=wrap;html=1;aspect=fixed;" vertex="1" parent="1">
          <mxGeometry x="860" y="840" width="40" height="40" as="geometry" />
        </mxCell>
        <mxCell id="pFNb65BiCYkRBpzbbmmn-117" style="rounded=0;orthogonalLoop=1;jettySize=auto;html=1;exitX=0;exitY=0.5;exitDx=0;exitDy=0;entryX=1;entryY=0;entryDx=0;entryDy=0;endArrow=none;endFill=0;" edge="1" parent="1" source="pFNb65BiCYkRBpzbbmmn-119" target="pFNb65BiCYkRBpzbbmmn-120">
          <mxGeometry relative="1" as="geometry" />
        </mxCell>
        <mxCell id="pFNb65BiCYkRBpzbbmmn-118" style="rounded=0;orthogonalLoop=1;jettySize=auto;html=1;exitX=1;exitY=0.5;exitDx=0;exitDy=0;entryX=0;entryY=0;entryDx=0;entryDy=0;endArrow=none;endFill=0;" edge="1" parent="1" source="pFNb65BiCYkRBpzbbmmn-119" target="pFNb65BiCYkRBpzbbmmn-121">
          <mxGeometry relative="1" as="geometry" />
        </mxCell>
        <mxCell id="pFNb65BiCYkRBpzbbmmn-119" value="2" style="ellipse;whiteSpace=wrap;html=1;aspect=fixed;fillColor=#f8cecc;strokeColor=#b85450;" vertex="1" parent="1">
          <mxGeometry x="560" y="1020" width="40" height="40" as="geometry" />
        </mxCell>
        <mxCell id="pFNb65BiCYkRBpzbbmmn-120" value="4" style="ellipse;whiteSpace=wrap;html=1;aspect=fixed;fillColor=#f8cecc;strokeColor=#b85450;" vertex="1" parent="1">
          <mxGeometry x="500" y="1080" width="40" height="40" as="geometry" />
        </mxCell>
        <mxCell id="pFNb65BiCYkRBpzbbmmn-121" value="5" style="ellipse;whiteSpace=wrap;html=1;aspect=fixed;fillColor=#f8cecc;strokeColor=#b85450;" vertex="1" parent="1">
          <mxGeometry x="620" y="1080" width="40" height="40" as="geometry" />
        </mxCell>
        <mxCell id="pFNb65BiCYkRBpzbbmmn-122" style="rounded=0;orthogonalLoop=1;jettySize=auto;html=1;exitX=0;exitY=0.5;exitDx=0;exitDy=0;entryX=1;entryY=0;entryDx=0;entryDy=0;endArrow=none;endFill=0;" edge="1" parent="1" source="pFNb65BiCYkRBpzbbmmn-124" target="pFNb65BiCYkRBpzbbmmn-119">
          <mxGeometry relative="1" as="geometry" />
        </mxCell>
        <mxCell id="pFNb65BiCYkRBpzbbmmn-123" style="rounded=0;orthogonalLoop=1;jettySize=auto;html=1;exitX=1;exitY=0.5;exitDx=0;exitDy=0;entryX=0;entryY=0;entryDx=0;entryDy=0;endArrow=none;endFill=0;" edge="1" parent="1" source="pFNb65BiCYkRBpzbbmmn-124" target="pFNb65BiCYkRBpzbbmmn-127">
          <mxGeometry relative="1" as="geometry">
            <mxPoint x="845.8578643762689" y="1025.857864376269" as="targetPoint" />
          </mxGeometry>
        </mxCell>
        <mxCell id="pFNb65BiCYkRBpzbbmmn-124" value="1" style="ellipse;whiteSpace=wrap;html=1;aspect=fixed;fillColor=#f8cecc;strokeColor=#b85450;" vertex="1" parent="1">
          <mxGeometry x="680" y="960" width="40" height="40" as="geometry" />
        </mxCell>
        <mxCell id="pFNb65BiCYkRBpzbbmmn-125" style="rounded=0;orthogonalLoop=1;jettySize=auto;html=1;exitX=0;exitY=0.5;exitDx=0;exitDy=0;entryX=1;entryY=0;entryDx=0;entryDy=0;endArrow=none;endFill=0;" edge="1" parent="1" source="pFNb65BiCYkRBpzbbmmn-127" target="pFNb65BiCYkRBpzbbmmn-128">
          <mxGeometry relative="1" as="geometry" />
        </mxCell>
        <mxCell id="pFNb65BiCYkRBpzbbmmn-126" style="rounded=0;orthogonalLoop=1;jettySize=auto;html=1;exitX=1;exitY=0.5;exitDx=0;exitDy=0;entryX=0;entryY=0;entryDx=0;entryDy=0;endArrow=none;endFill=0;" edge="1" parent="1" source="pFNb65BiCYkRBpzbbmmn-127" target="pFNb65BiCYkRBpzbbmmn-129">
          <mxGeometry relative="1" as="geometry" />
        </mxCell>
        <mxCell id="pFNb65BiCYkRBpzbbmmn-127" value="3" style="ellipse;whiteSpace=wrap;html=1;aspect=fixed;fillColor=#e1d5e7;strokeColor=#9673a6;" vertex="1" parent="1">
          <mxGeometry x="800" y="1020" width="40" height="40" as="geometry" />
        </mxCell>
        <mxCell id="pFNb65BiCYkRBpzbbmmn-128" value="6" style="ellipse;whiteSpace=wrap;html=1;aspect=fixed;" vertex="1" parent="1">
          <mxGeometry x="740" y="1080" width="40" height="40" as="geometry" />
        </mxCell>
        <mxCell id="pFNb65BiCYkRBpzbbmmn-129" value="7" style="ellipse;whiteSpace=wrap;html=1;aspect=fixed;" vertex="1" parent="1">
          <mxGeometry x="860" y="1080" width="40" height="40" as="geometry" />
        </mxCell>
      </root>
    </mxGraphModel>
  </diagram>
</mxfile>
